<svg version="1.2" xmlns="http://www.w3.org/2000/svg" viewBox="0 0 1453 822" width="1453" height="822"><defs><clipPath clipPathUnits="userSpaceOnUse" id="cp1"><path d="m1452.2 821.45h-1451.42v-820.67h1451.42z"/></clipPath><clipPath clipPathUnits="userSpaceOnUse" id="cp2"><path d="m1452.2 821.45h-1451.42v-820.67h1451.42z"/></clipPath><linearGradient id="P" gradientUnits="userSpaceOnUse"/><radialGradient id="g1" cx="674.2" cy="463.6" r="676.2" href="#P"><stop offset="0" stop-color="#c750a7"/><stop offset="1" stop-color="#4c2c97"/></radialGradient><radialGradient id="g2" cx="978.5" cy="291.8" r="858.1" href="#P"><stop offset="0" stop-color="#c750a7"/><stop offset="1" stop-color="#4c2c97"/></radialGradient><radialGradient id="g3" cx="1122" cy="524.7" r="1500.7" href="#P"><stop offset="0" stop-color="#c750a7"/><stop offset="1" stop-color="#4c2c97"/></radialGradient><clipPath clipPathUnits="userSpaceOnUse" id="cp3"><path d="m1452.2 821.45h-1451.42v-820.67h1451.42z"/></clipPath></defs><style>.a{fill:#fff}.b{fill:#a630b0}.c{opacity:.3;fill:url(#g1)}.d{opacity:.3;fill:url(#g2)}.e{fill:url(#g3)}</style><path class="a" d="m1452.2 821.5h-1451.4v-820.7h1451.4z"/><g clip-path="url(#cp1)" style="opacity:.3"><g style="opacity:.1"><ellipse class="b" cx="52.2" cy="-42.7" rx="3.2" ry="2.8"/><ellipse class="b" cx="186.8" cy="-42.7" rx="3.2" ry="2.8"/><ellipse class="b" cx="321.4" cy="-42.7" rx="3.2" ry="2.8"/><ellipse class="b" cx="455.9" cy="-42.7" rx="3.2" ry="2.8"/><ellipse class="b" cx="590.5" cy="-42.7" rx="3.2" ry="2.8"/><ellipse class="b" cx="725" cy="-42.7" rx="3.2" ry="2.8"/><ellipse class="b" cx="859.6" cy="-42.7" rx="3.2" ry="2.8"/><ellipse class="b" cx="994.1" cy="-42.7" rx="3.2" ry="2.8"/><ellipse class="b" cx="1128.7" cy="-42.7" rx="3.2" ry="2.8"/><ellipse class="b" cx="1263.3" cy="-42.7" rx="3.2" ry="2.8"/><ellipse class="b" cx="1397.8" cy="-42.7" rx="3.2" ry="2.8"/><ellipse class="b" cx="52.2" cy="70.8" rx="3.2" ry="2.8"/><ellipse class="b" cx="186.8" cy="70.8" rx="3.2" ry="2.8"/><ellipse class="b" cx="321.4" cy="70.8" rx="3.2" ry="2.8"/><ellipse class="b" cx="455.9" cy="70.8" rx="3.2" ry="2.8"/><ellipse class="b" cx="590.5" cy="70.8" rx="3.2" ry="2.8"/><ellipse class="b" cx="725" cy="70.8" rx="3.2" ry="2.8"/><ellipse class="b" cx="859.6" cy="70.8" rx="3.2" ry="2.8"/><ellipse class="b" cx="994.1" cy="70.8" rx="3.2" ry="2.8"/><ellipse class="b" cx="1128.7" cy="70.8" rx="3.2" ry="2.8"/><ellipse class="b" cx="1263.3" cy="70.8" rx="3.2" ry="2.8"/><ellipse class="b" cx="1397.8" cy="70.8" rx="3.2" ry="2.8"/><ellipse class="b" cx="52.2" cy="184.2" rx="3.2" ry="2.8"/><ellipse class="b" cx="186.8" cy="184.2" rx="3.2" ry="2.8"/><ellipse class="b" cx="321.4" cy="184.2" rx="3.2" ry="2.8"/><ellipse class="b" cx="455.9" cy="184.2" rx="3.2" ry="2.8"/><ellipse class="b" cx="590.5" cy="184.2" rx="3.2" ry="2.8"/><ellipse class="b" cx="725" cy="184.2" rx="3.2" ry="2.8"/><ellipse class="b" cx="859.6" cy="184.2" rx="3.2" ry="2.8"/><ellipse class="b" cx="994.1" cy="184.2" rx="3.2" ry="2.8"/><ellipse class="b" cx="1128.7" cy="184.2" rx="3.2" ry="2.8"/><ellipse class="b" cx="1263.3" cy="184.2" rx="3.2" ry="2.8"/><ellipse class="b" cx="1397.8" cy="184.2" rx="3.2" ry="2.8"/><ellipse class="b" cx="52.2" cy="297.7" rx="3.2" ry="2.8"/><ellipse class="b" cx="186.8" cy="297.7" rx="3.2" ry="2.8"/><ellipse class="b" cx="321.4" cy="297.7" rx="3.2" ry="2.8"/><ellipse class="b" cx="455.9" cy="297.7" rx="3.2" ry="2.8"/><ellipse class="b" cx="590.5" cy="297.7" rx="3.2" ry="2.8"/><ellipse class="b" cx="725" cy="297.7" rx="3.2" ry="2.8"/><ellipse class="b" cx="859.6" cy="297.7" rx="3.2" ry="2.8"/><ellipse class="b" cx="994.1" cy="297.7" rx="3.2" ry="2.8"/><ellipse class="b" cx="1128.7" cy="297.7" rx="3.2" ry="2.8"/><ellipse class="b" cx="1263.3" cy="297.7" rx="3.2" ry="2.8"/><ellipse class="b" cx="1397.8" cy="297.7" rx="3.2" ry="2.8"/><ellipse class="b" cx="52.2" cy="411.1" rx="3.2" ry="2.8"/><ellipse class="b" cx="186.8" cy="411.1" rx="3.2" ry="2.8"/><ellipse class="b" cx="321.4" cy="411.1" rx="3.2" ry="2.8"/><ellipse class="b" cx="455.9" cy="411.1" rx="3.2" ry="2.8"/><ellipse class="b" cx="590.5" cy="411.1" rx="3.2" ry="2.8"/><ellipse class="b" cx="725" cy="411.1" rx="3.2" ry="2.8"/><ellipse class="b" cx="859.6" cy="411.1" rx="3.2" ry="2.8"/><ellipse class="b" cx="994.1" cy="411.1" rx="3.2" ry="2.8"/><ellipse class="b" cx="1128.7" cy="411.1" rx="3.2" ry="2.8"/><ellipse class="b" cx="1263.3" cy="411.1" rx="3.2" ry="2.8"/><ellipse class="b" cx="1397.8" cy="411.1" rx="3.2" ry="2.8"/><ellipse class="b" cx="52.2" cy="524.6" rx="3.2" ry="2.8"/><ellipse class="b" cx="186.8" cy="524.6" rx="3.2" ry="2.8"/><ellipse class="b" cx="321.4" cy="524.6" rx="3.2" ry="2.8"/><ellipse class="b" cx="455.9" cy="524.6" rx="3.2" ry="2.8"/><ellipse class="b" cx="590.5" cy="524.6" rx="3.2" ry="2.8"/><ellipse class="b" cx="725" cy="524.6" rx="3.2" ry="2.8"/><ellipse class="b" cx="859.6" cy="524.6" rx="3.2" ry="2.8"/><ellipse class="b" cx="994.1" cy="524.6" rx="3.2" ry="2.8"/><ellipse class="b" cx="1128.7" cy="524.6" rx="3.2" ry="2.8"/><ellipse class="b" cx="1263.3" cy="524.6" rx="3.2" ry="2.8"/><ellipse class="b" cx="1397.8" cy="524.6" rx="3.2" ry="2.8"/><ellipse class="b" cx="52.2" cy="638" rx="3.2" ry="2.8"/><ellipse class="b" cx="186.8" cy="638" rx="3.2" ry="2.8"/><ellipse class="b" cx="321.4" cy="638" rx="3.2" ry="2.8"/><ellipse class="b" cx="455.9" cy="638" rx="3.2" ry="2.8"/><ellipse class="b" cx="590.5" cy="638" rx="3.2" ry="2.8"/><ellipse class="b" cx="725" cy="638" rx="3.2" ry="2.8"/><ellipse class="b" cx="859.6" cy="638" rx="3.2" ry="2.8"/><ellipse class="b" cx="994.1" cy="638" rx="3.2" ry="2.8"/><ellipse class="b" cx="1128.7" cy="638" rx="3.2" ry="2.8"/><ellipse class="b" cx="1263.3" cy="638" rx="3.2" ry="2.8"/><ellipse class="b" cx="1397.8" cy="638" rx="3.2" ry="2.8"/><ellipse class="b" cx="52.2" cy="751.5" rx="3.2" ry="2.8"/><ellipse class="b" cx="186.8" cy="751.5" rx="3.2" ry="2.8"/><ellipse class="b" cx="321.4" cy="751.5" rx="3.2" ry="2.8"/><ellipse class="b" cx="455.9" cy="751.5" rx="3.2" ry="2.8"/><ellipse class="b" cx="590.5" cy="751.5" rx="3.2" ry="2.8"/><ellipse class="b" cx="725" cy="751.5" rx="3.2" ry="2.8"/><ellipse class="b" cx="859.6" cy="751.5" rx="3.2" ry="2.8"/><ellipse class="b" cx="994.1" cy="751.5" rx="3.2" ry="2.8"/><ellipse class="b" cx="1128.7" cy="751.5" rx="3.2" ry="2.8"/><ellipse class="b" cx="1263.3" cy="751.5" rx="3.2" ry="2.8"/><ellipse class="b" cx="1397.8" cy="751.5" rx="3.2" ry="2.8"/><ellipse class="b" cx="52.2" cy="864.9" rx="3.2" ry="2.8"/><ellipse class="b" cx="186.8" cy="864.9" rx="3.2" ry="2.8"/><ellipse class="b" cx="321.4" cy="864.9" rx="3.2" ry="2.8"/><ellipse class="b" cx="455.9" cy="864.9" rx="3.2" ry="2.8"/><ellipse class="b" cx="590.5" cy="864.9" rx="3.2" ry="2.8"/><ellipse class="b" cx="725" cy="864.9" rx="3.2" ry="2.8"/><ellipse class="b" cx="859.6" cy="864.9" rx="3.2" ry="2.8"/><ellipse class="b" cx="994.1" cy="864.9" rx="3.2" ry="2.8"/><ellipse class="b" cx="1128.7" cy="864.9" rx="3.2" ry="2.8"/><ellipse class="b" cx="1263.3" cy="864.9" rx="3.2" ry="2.8"/><ellipse class="b" cx="1397.8" cy="864.9" rx="3.2" ry="2.8"/></g></g><g clip-path="url(#cp2)"><path class="c" d="m1099.7 405.9c-12.8 87.1 171.2 127 180 186.3 8.8 59.2-4.9 83.2 90.9 118.5q95.7 35.3 138.5 151.6h-1669.8v-760.4q64.7-73.8 154-49.9c89.4 23.9 153.1 171.6 277 165.2 123.9-6.3 182.5 53.6 213.6 96.8 31.1 43.2 83.8 45.4 229.1 7.8 145.3-37.6 151.5 1.4 227.2 39.8q75.7 38.4 104.1-20.9 68.2-21.8 55.4 65.2z"/><path class="d" d="m-131.8 113.2c10.4-5.7 191.6-44.1 248.5 63.8 57 107.9 117.4 109.2 208.9 115.8 91.4 6.7 63.8 8 165.6 65.8 101.9 57.9 161.7 27.8 235.9 7.1 74.2-20.7 192.6 28.9 287.3-14.2q94.7-43.1 98.6 27.6-26.4 61.8 50.2 104.9c76.6 43.2 39 93 60.3 172q21.3 79 228.7 196l-1621.9-74.4z"/><path class="e" d="m-107.6 135.2q29.8 121.9 155.3 135.6c125.6 13.7 129.4 9.6 177.3 65.2 47.9 55.6 73.8 86.8 159.2 66.6 85.5-20.1 160.6-67.6 230.4-29 69.9 38.5 224.8 103.8 384.4-47.8q159.6-151.7 107.3 76.8-110.7 84.9 50.7 161.1c56.9 28.5 47.7 113.5 66.4 168.6q18.8 55.1 172.2 161.5-1175.6 86-1183.3 87.1-7.8 1.2-446.8-212.1z"/></g><g clip-path="url(#cp3)"></g></svg>