<svg width="346" height="490" viewBox="0 0 346 490" fill="none" xmlns="http://www.w3.org/2000/svg">
<path d="M195.215 142.116L48.4937 370.189L20.04 347.738L166.762 119.665C177.154 103.511 190.02 88.9998 204.37 76.679L216.494 66.5485C216.824 66.1834 217.154 65.9096 217.484 65.7271C221.195 63.8105 225.896 67.9175 224.411 72.572L219.71 88.726C214.02 107.892 205.607 125.962 195.215 142.116V142.116Z" fill="url(#paint0_linear_308_1693)"/>
<path d="M188.04 136.64L41.5658 364.439L20.04 347.738L166.762 119.665C177.154 103.511 190.019 88.9998 204.37 76.6789L216.494 66.5484C216.824 66.1834 217.154 65.9096 217.483 65.7271C217.483 66.2746 217.401 66.731 217.236 67.096L212.535 83.25C206.844 102.142 198.679 120.213 188.04 136.64V136.64Z" fill="#FFECFF"/>
<path d="M189.524 137.736L43.0503 365.535L21.772 348.559L168.246 120.76C178.885 104.332 191.504 89.8212 205.854 77.7741L217.978 67.6436C218.308 67.2786 218.638 67.0048 218.968 66.8223C218.968 67.1873 218.968 67.6437 218.968 68.1912L214.019 84.0715C208.329 103.237 200.164 121.308 189.524 137.736V137.736Z" fill="url(#paint1_linear_308_1693)"/>
<path d="M46.7617 393.736L0.493652 357.047L31.4215 330.215L59.8751 352.666L46.7617 393.736Z" fill="url(#paint2_radial_308_1693)"/>
<path d="M35.6277 384.7L0.493652 357.047L31.4215 330.215L48.4936 343.905L35.6277 384.7Z" fill="#CC7DFF"/>
<path d="M38.1019 386.343L0.493652 357.047L33.6483 331.857L50.9678 345.273L38.1019 386.343Z" fill="url(#paint3_radial_308_1693)"/>
<path d="M38.1018 389.903L5.68945 364.439L7.174 362.249L39.3389 387.712L38.1018 389.903Z" fill="url(#paint4_radial_308_1693)"/>
<path d="M59.8751 352.666L31.4214 330.215L31.9163 329.394L60.3699 351.845L59.8751 352.666Z" fill="url(#paint5_radial_308_1693)"/>
<path d="M297.648 226.172L150.926 453.971L122.473 431.519L269.194 203.72C279.586 187.293 292.452 172.781 306.803 160.734L318.926 150.33C319.256 150.148 319.586 149.965 319.916 149.783C323.627 147.866 328.328 151.699 326.844 156.627L322.143 172.508C316.452 191.673 308.04 209.744 297.648 226.172Z" fill="url(#paint6_linear_308_1693)"/>
<path d="M290.473 220.422L143.998 448.221L122.473 431.52L269.194 203.721C279.586 187.293 292.452 172.782 306.803 160.735L318.926 150.33C319.256 150.148 319.586 149.965 319.916 149.783C319.916 150.148 319.834 150.513 319.669 150.878L314.968 167.032C309.277 186.198 301.112 203.994 290.473 220.422V220.422Z" fill="#DDA9FF"/>
<path d="M291.215 221.244L144.494 449.042L123.215 432.341L269.689 204.542C280.329 188.114 292.947 173.603 307.545 161.282L319.669 151.152C319.999 150.787 320.329 150.604 320.659 150.604C320.659 150.969 320.576 151.334 320.411 151.699L315.71 167.853C310.019 186.745 301.607 204.816 291.215 221.244V221.244Z" fill="url(#paint7_linear_308_1693)"/>
<path d="M149.195 477.518L102.927 441.103L133.607 414.271L162.308 436.722L149.195 477.518Z" fill="url(#paint8_radial_308_1693)"/>
<path d="M138.061 468.756L102.927 441.103L133.607 414.271L150.927 427.687L138.061 468.756Z" fill="#CC7DFF"/>
<path d="M139.792 470.125L104.658 442.471L135.339 415.639L152.658 429.055L139.792 470.125Z" fill="url(#paint9_radial_308_1693)"/>
<path d="M140.287 473.684L108.122 448.221L109.607 446.305L141.772 471.494L140.287 473.684Z" fill="url(#paint10_radial_308_1693)"/>
<path d="M162.308 436.722L133.607 414.27L134.349 413.175L162.803 435.627L162.308 436.722Z" fill="url(#paint11_radial_308_1693)"/>
<path d="M310.266 149.235L113.566 455.34L28.4521 388.534L225.4 82.4287C246.679 49.2993 276.37 23.8362 310.514 9.05115L328.081 1.38484C336.988 -2.44831 346.143 4.9442 345.895 15.3485L345.153 36.157C343.668 76.9528 331.545 116.106 310.266 149.235V149.235Z" fill="url(#paint12_linear_308_1693)"/>
<path d="M292.452 135.271L95.7511 441.376L28.4521 388.533L225.401 82.4286C246.679 49.2992 276.37 23.8361 310.514 9.05107L328.081 1.38477L327.339 22.1933C325.854 62.7152 313.73 102.142 292.452 135.271V135.271Z" fill="#CC7DFF"/>
<path d="M293.442 135.545L96.4939 441.65L29.4424 388.807L226.391 82.7025C247.669 49.5731 277.113 24.11 311.504 9.325L328.824 1.65869L328.329 22.4672C326.844 62.9892 314.721 102.416 293.442 135.545V135.545Z" fill="url(#paint13_linear_308_1693)"/>
<path style="mix-blend-mode:multiply" d="M309.03 110.082C308.535 117.201 307.71 124.137 306.556 130.891C304.576 143.668 301.607 156.08 297.649 168.127C291.71 186.745 283.298 204.542 272.906 220.97L209.071 319.81L217.484 424.127L182.35 484.91L182.102 484.636L179.628 489.017L139.546 450.138L138.061 448.769L130.638 470.672C129.401 474.506 125.195 475.875 122.226 473.684L118.267 470.399L115.545 474.506L90.061 454.245L92.7826 450.138L86.3496 445.209L74.9682 462.185C73.9785 463.554 71.9991 463.827 70.5145 462.732C70.5145 462.732 70.4321 462.641 70.2672 462.459C70.1022 462.276 69.9373 462.185 69.7723 462.185C68.2878 461.09 68.0404 458.899 69.0301 457.256L79.6692 440.007L71.7517 433.71L69.0301 437.817L43.5455 417.556L46.0197 413.449L42.8032 410.985C39.8342 408.521 39.5867 403.866 42.3084 401.128L58.8857 386.343L56.6589 384.974L10.8857 355.952L13.6073 351.845L12.3702 351.023L52.7002 294.347L145.978 268.884L209.071 170.591C226.391 144.033 248.659 121.855 274.638 105.975C280.246 102.507 285.937 99.4039 291.71 96.666C292.205 96.4834 292.618 96.3009 292.948 96.1184C293.113 96.1184 293.195 96.1184 293.195 96.1184C293.36 95.9359 293.607 95.8446 293.937 95.8446C294.267 95.6621 294.515 95.5708 294.679 95.5708C295.009 95.5708 295.257 95.5708 295.422 95.5708C295.752 95.5708 296.082 95.5708 296.411 95.5708C296.576 95.5708 296.741 95.5708 296.906 95.5708C297.236 95.5708 297.566 95.5708 297.896 95.5708C298.061 95.5708 298.226 95.5708 298.391 95.5708C298.721 95.5708 299.051 95.6621 299.38 95.8446C299.545 95.8446 299.71 95.8446 299.875 95.8446C300.205 96.0271 300.535 96.1184 300.865 96.1184C301.03 96.3009 301.195 96.3922 301.36 96.3922C301.69 96.5747 301.937 96.7573 302.102 96.9398C302.267 96.9398 302.432 97.031 302.597 97.2136C303.092 97.3961 303.504 97.6699 303.834 98.035C307.298 100.499 309.277 105.154 309.03 110.082V110.082Z" fill="url(#paint14_linear_308_1693)"/>
<path d="M86.3494 397.295L0.493652 348.833L42.5555 287.228L174.927 250.813L86.3494 397.295Z" fill="#FFDCFF"/>
<path d="M88.0812 399.485L3.70996 346.095L40.8234 292.157L176.411 253.004L88.0812 399.485Z" fill="url(#paint15_radial_308_1693)"/>
<path d="M194.968 266.694L207.339 417.008L169.483 481.898L98.9678 406.878L194.968 266.694Z" fill="#FFE4FF"/>
<path d="M84.8648 402.223L46.2668 377.856L0.493652 348.833L40.8235 292.157L109.36 273.265L173.195 255.742L84.8648 402.223Z" fill="url(#paint16_radial_308_1693)"/>
<path d="M46.2669 377.855L0.493652 348.833L40.8235 292.157L109.36 273.265L46.2669 377.855Z" fill="url(#paint17_radial_308_1693)"/>
<path d="M169.483 481.898L129.401 443.019L96.2461 411.259L192.246 270.801L198.184 342.536L204.617 421.115L169.483 481.898Z" fill="url(#paint18_radial_308_1693)"/>
<path d="M169.483 481.898L129.4 443.019L198.184 342.536L204.617 421.115L169.483 481.898Z" fill="url(#paint19_radial_308_1693)"/>
<path d="M262.514 213.577L122.225 431.793L58.6377 381.689L198.926 163.473C215.999 136.64 238.514 114.737 264.246 98.8565C269.854 95.3884 275.627 92.2854 281.566 89.5474C281.895 89.1823 282.308 88.9998 282.803 88.9998C286.761 87.6308 290.72 88.4522 293.689 90.9164C296.906 93.3806 299.133 98.0351 298.885 102.963C298.39 109.9 297.566 116.836 296.411 123.772C294.432 136.549 291.462 148.961 287.504 161.008C281.318 179.627 272.906 197.423 262.514 213.577V213.577Z" fill="url(#paint20_linear_308_1693)"/>
<path d="M246.432 200.983L106.143 419.199L58.6377 381.689L198.926 163.472C215.999 136.64 238.514 114.737 264.246 98.8564C269.854 95.3883 275.627 92.2853 281.566 89.5473C281.896 89.1823 282.308 88.9998 282.803 88.9998C282.803 89.3648 282.803 89.8211 282.803 90.3687C282.308 97.3049 281.483 104.241 280.329 111.177C278.349 123.954 275.38 136.367 271.421 148.414C265.236 167.032 257.071 184.829 246.432 200.983V200.983Z" fill="#FFE4FF"/>
<path d="M248.411 202.352L108.123 420.294L60.3701 382.784L200.659 164.841C217.978 138.009 240.246 115.832 266.226 99.9517C271.669 96.4836 277.36 93.3805 283.298 90.6426C283.793 90.46 284.205 90.2775 284.535 90.095C284.535 90.6426 284.535 91.0989 284.535 91.464C284.04 98.5827 283.298 105.519 282.308 112.273C280.164 125.05 277.112 137.462 273.154 149.509C267.215 168.127 258.803 185.924 248.411 202.352V202.352Z" fill="url(#paint21_linear_308_1693)"/>
<path d="M112.081 466.566L32.4111 403.592C29.442 401.402 29.442 396.747 32.1637 394.009L87.5864 343.631C95.2565 336.512 106.39 336.238 114.555 342.536L137.566 360.606C145.483 367.177 148.7 378.677 145.236 389.081L120.494 463.554C119.256 467.387 115.05 468.756 112.081 466.566V466.566Z" fill="#FFE7FF"/>
<path d="M142.514 392.641L118.019 466.018C116.782 469.577 112.576 470.946 109.854 468.756L73.9782 440.555L68.2874 436.174L31.6688 407.152C28.6998 404.961 28.4523 400.307 31.174 397.569L85.607 348.012C93.2771 341.167 104.164 340.893 112.081 347.19L119.257 352.94L128.164 359.785L134.597 364.987C142.514 371.284 145.731 382.51 142.514 392.641Z" fill="url(#paint22_linear_308_1693)"/>
<path d="M56.1637 432.341L30.6792 412.354L33.1534 408.247L58.8854 428.508L56.1637 432.341Z" fill="#7C26A4"/>
<path d="M102.679 469.03L77.1943 449.042L79.6686 444.936L105.4 465.197L102.679 469.03Z" fill="#7C26A4"/>
<path d="M265.483 167.032C264.989 166.484 264.494 165.937 264.246 164.841C262.267 151.425 250.638 142.39 238.514 144.58C236.782 144.854 235.298 143.759 235.05 141.842C234.803 140.2 235.793 138.557 237.525 138.283C252.865 135.271 267.463 146.771 270.185 163.746C270.432 165.663 269.195 167.306 267.71 167.579C266.968 167.853 266.226 167.579 265.483 167.032V167.032Z" fill="url(#paint23_linear_308_1693)"/>
<path d="M296.411 123.772C291.958 109.808 281.566 101.321 264.246 98.8565C269.854 95.3884 275.628 92.2854 281.566 89.5474C285.772 87.357 290.226 88.1784 293.69 90.9164C296.906 93.3806 299.133 98.0351 298.885 102.963C298.391 109.9 297.566 116.836 296.411 123.772Z" fill="url(#paint24_linear_308_1693)"/>
<g style="mix-blend-mode:multiply" opacity="0.4">
<path d="M130.638 356.499L128.163 359.785L73.9779 440.555L68.2871 436.174L119.256 352.94L121.483 349.38C126.431 349.38 128.906 352.118 130.638 356.499V356.499Z" fill="#552C84"/>
</g>
<path d="M119.751 347.464C124.452 347.464 127.174 350.202 128.658 354.583L61.8542 453.971C60.8645 455.34 58.8851 455.614 57.4006 454.518C56.1635 453.423 55.6686 451.507 56.6583 449.864L119.751 347.464Z" fill="url(#paint25_linear_308_1693)"/>
<defs>
<linearGradient id="paint0_linear_308_1693" x1="91499.7" y1="18849.8" x2="94360.1" y2="20213.8" gradientUnits="userSpaceOnUse">
<stop stop-color="#8144A3"/>
<stop offset="1" stop-color="#202580"/>
</linearGradient>
<linearGradient id="paint1_linear_308_1693" x1="88207.7" y1="18766.2" x2="90309.1" y2="19766.3" gradientUnits="userSpaceOnUse">
<stop stop-color="#8144A3"/>
<stop offset="1" stop-color="#202580"/>
</linearGradient>
<radialGradient id="paint2_radial_308_1693" cx="0" cy="0" r="1" gradientUnits="userSpaceOnUse" gradientTransform="translate(22084.5 10188.6) scale(1704.25 1823.05)">
<stop stop-color="#8144A3"/>
<stop offset="1" stop-color="#202580"/>
</radialGradient>
<radialGradient id="paint3_radial_308_1693" cx="0" cy="0" r="1" gradientUnits="userSpaceOnUse" gradientTransform="translate(18797.1 8798.91) scale(1292.14 1394.83)">
<stop stop-color="#8144A3"/>
<stop offset="1" stop-color="#202580"/>
</radialGradient>
<radialGradient id="paint4_radial_308_1693" cx="0" cy="0" r="1" gradientUnits="userSpaceOnUse" gradientTransform="translate(12237.3 5173.96) scale(524.932 431.395)">
<stop stop-color="#8144A3"/>
<stop offset="1" stop-color="#202580"/>
</radialGradient>
<radialGradient id="paint5_radial_308_1693" cx="0" cy="0" r="1" gradientUnits="userSpaceOnUse" gradientTransform="translate(10843.7 4104.23) scale(399.49 321.163)">
<stop stop-color="#202580"/>
<stop offset="1" stop-color="#8144A3"/>
</radialGradient>
<linearGradient id="paint6_linear_308_1693" x1="100075" y1="28241.8" x2="102945" y2="29628.5" gradientUnits="userSpaceOnUse">
<stop stop-color="#8144A3"/>
<stop offset="1" stop-color="#202580"/>
</linearGradient>
<linearGradient id="paint7_linear_308_1693" x1="96515" y1="27965.1" x2="98606.7" y2="28946.6" gradientUnits="userSpaceOnUse">
<stop stop-color="#8144A3"/>
<stop offset="1" stop-color="#202580"/>
</linearGradient>
<radialGradient id="paint8_radial_308_1693" cx="0" cy="0" r="1" gradientUnits="userSpaceOnUse" gradientTransform="translate(24645.3 12165.6) scale(1704.25 1815.19)">
<stop stop-color="#8144A3"/>
<stop offset="1" stop-color="#202580"/>
</radialGradient>
<radialGradient id="paint9_radial_308_1693" cx="0" cy="0" r="1" gradientUnits="userSpaceOnUse" gradientTransform="translate(20000.7 10588.1) scale(1185.6 1345.79)">
<stop stop-color="#8144A3"/>
<stop offset="1" stop-color="#202580"/>
</radialGradient>
<radialGradient id="paint10_radial_308_1693" cx="0" cy="0" r="1" gradientUnits="userSpaceOnUse" gradientTransform="translate(13732.8 6048.19) scale(524.933 427.123)">
<stop stop-color="#8144A3"/>
<stop offset="1" stop-color="#202580"/>
</radialGradient>
<radialGradient id="paint11_radial_308_1693" cx="0" cy="0" r="1" gradientUnits="userSpaceOnUse" gradientTransform="translate(12247 4952.94) scale(402.904 324.942)">
<stop stop-color="#202580"/>
<stop offset="1" stop-color="#8144A3"/>
</radialGradient>
<linearGradient id="paint12_linear_308_1693" x1="153578" y1="13877.3" x2="166735" y2="20407.7" gradientUnits="userSpaceOnUse">
<stop stop-color="#8144A3"/>
<stop offset="1" stop-color="#202580"/>
</linearGradient>
<linearGradient id="paint13_linear_308_1693" x1="144451" y1="14169.4" x2="154354" y2="18968.1" gradientUnits="userSpaceOnUse">
<stop stop-color="#8144A3"/>
<stop offset="1" stop-color="#202580"/>
</linearGradient>
<linearGradient id="paint14_linear_308_1693" x1="145486" y1="31177.8" x2="156448" y2="49433.5" gradientUnits="userSpaceOnUse">
<stop stop-color="#C750A7"/>
<stop offset="1" stop-color="#4C2C97"/>
</linearGradient>
<radialGradient id="paint15_radial_308_1693" cx="0" cy="0" r="1" gradientUnits="userSpaceOnUse" gradientTransform="translate(71363.8 13714.6) scale(12555.4 10649.2)">
<stop stop-color="#4C2C97"/>
<stop offset="1" stop-color="#C750A7"/>
</radialGradient>
<radialGradient id="paint16_radial_308_1693" cx="0" cy="0" r="1" gradientUnits="userSpaceOnUse" gradientTransform="translate(71136 13863.9) scale(15439.5 13095.4)">
<stop stop-color="#C750A7"/>
<stop offset="1" stop-color="#4C2C97"/>
</radialGradient>
<radialGradient id="paint17_radial_308_1693" cx="0" cy="0" r="1" gradientUnits="userSpaceOnUse" gradientTransform="translate(43296.5 12426.7) scale(6586.39 6327.72)">
<stop stop-color="#C750A7"/>
<stop offset="1" stop-color="#4C2C97"/>
</radialGradient>
<radialGradient id="paint18_radial_308_1693" cx="0" cy="0" r="1" gradientUnits="userSpaceOnUse" gradientTransform="translate(48689.8 25349.2) scale(9688.38 18872.1)">
<stop stop-color="#C750A7"/>
<stop offset="1" stop-color="#4C2C97"/>
</radialGradient>
<radialGradient id="paint19_radial_308_1693" cx="0" cy="0" r="1" gradientUnits="userSpaceOnUse" gradientTransform="translate(33879.1 21539.6) scale(4580.7 8487.18)">
<stop stop-color="#C750A7"/>
<stop offset="1" stop-color="#4C2C97"/>
</radialGradient>
<linearGradient id="paint20_linear_308_1693" x1="110917" y1="80696.8" x2="97164.6" y2="74617.3" gradientUnits="userSpaceOnUse">
<stop stop-color="#C750A7"/>
<stop offset="1" stop-color="#4C2C97"/>
</linearGradient>
<linearGradient id="paint21_linear_308_1693" x1="105037" y1="22312.5" x2="110317" y2="24857" gradientUnits="userSpaceOnUse">
<stop stop-color="#C750A7"/>
<stop offset="1" stop-color="#4C2C97"/>
</linearGradient>
<linearGradient id="paint22_linear_308_1693" x1="42829.9" y1="21461.8" x2="48003.9" y2="21461.8" gradientUnits="userSpaceOnUse">
<stop stop-color="#C750A7"/>
<stop offset="1" stop-color="#4C2C97"/>
</linearGradient>
<linearGradient id="paint23_linear_308_1693" x1="16474.4" y1="2791.42" x2="16894.2" y2="3146.77" gradientUnits="userSpaceOnUse">
<stop stop-color="#C750A7"/>
<stop offset="1" stop-color="#4C2C97"/>
</linearGradient>
<linearGradient id="paint24_linear_308_1693" x1="16702.6" y1="2578.85" x2="17281.6" y2="2925.12" gradientUnits="userSpaceOnUse">
<stop stop-color="#C750A7"/>
<stop offset="1" stop-color="#4C2C97"/>
</linearGradient>
<linearGradient id="paint25_linear_308_1693" x1="30705.9" y1="18144.5" x2="26665.2" y2="21699.5" gradientUnits="userSpaceOnUse">
<stop stop-color="#C750A7"/>
<stop offset="1" stop-color="#4C2C97"/>
</linearGradient>
</defs>
</svg>
