<svg width="1093" height="584" viewBox="0 0 1093 584" fill="none" xmlns="http://www.w3.org/2000/svg">
<path d="M514.886 122.513L516.618 126.073L520.082 128.263L516.618 130.18L514.886 134.013L512.907 130.18L509.69 128.263L512.907 126.073L514.886 122.513Z" fill="#FEA7AF"/>
<path d="M711.835 378.24L713.072 380.704L715.299 382.073L713.072 383.442L711.835 385.906L710.598 383.442L708.371 382.073L710.598 380.704L711.835 378.24Z" fill="#FEA7AF"/>
<path d="M715.299 159.476L716.536 161.94L718.515 163.309L716.536 164.404L715.299 166.869L714.062 164.404L711.835 163.309L714.062 161.94L715.299 159.476Z" fill="#FEA7AF"/>
<path d="M219.711 484.473L220.948 486.937L223.175 488.306L220.948 489.401L219.711 491.865L218.474 489.401L216.247 488.306L218.474 486.937L219.711 484.473Z" fill="#FEA7AF"/>
<path opacity="0.3" d="M132.124 48.8621L133.361 51.3263L135.588 52.6952L133.361 54.0642L132.124 56.5284L130.887 54.0642L128.66 52.6952L130.887 51.3263L132.124 48.8621Z" fill="white"/>
<path opacity="0.3" d="M3.46392 558.945L4.70103 561.409L6.92783 562.778L4.70103 563.874L3.46392 566.338L2.2268 563.874L0 562.778L2.2268 561.409L3.46392 558.945Z" fill="white"/>
<path opacity="0.3" d="M19.794 98.9668L21.0311 101.431L23.2579 102.8L21.0311 103.895L19.794 106.359L18.5569 103.895L16.3301 102.8L18.5569 101.431L19.794 98.9668Z" fill="white"/>
<path opacity="0.3" d="M295.175 204.105L296.412 206.295L298.639 207.664L296.412 209.033L295.175 211.497L293.938 209.033L291.711 207.664L293.938 206.295L295.175 204.105Z" fill="white"/>
<path opacity="0.3" d="M408.247 264.614L410.474 269.268L414.928 272.006L410.474 274.744L408.247 279.399L405.773 274.744L401.319 272.006L405.773 269.268L408.247 264.614Z" fill="#FEA7AF"/>
<path opacity="0.3" d="M46.0202 0.673828L48.4945 5.60217L52.9481 8.34014L48.4945 10.8043L46.0202 15.7326L43.7934 10.8043L39.3398 8.34014L43.7934 5.60217L46.0202 0.673828Z" fill="white"/>
<path opacity="0.3" d="M999.093 207.664L1001.32 212.592L1005.77 215.33L1001.32 217.795L999.093 222.723L996.619 217.795L992.165 215.33L996.619 212.592L999.093 207.664Z" fill="white"/>
<path opacity="0.3" d="M979.3 568.802L981.774 573.731L986.227 576.469L981.774 578.933L979.3 583.861L977.073 578.933L972.619 576.469L977.073 573.731L979.3 568.802Z" fill="white"/>
<path opacity="0.3" d="M59.1345 477.08L60.3716 479.271L62.351 480.64L60.3716 481.735L59.1345 484.199L58.1448 481.735L55.918 480.64L58.1448 479.271L59.1345 477.08Z" fill="white"/>
<path opacity="0.3" d="M543.34 448.879L544.578 451.069L546.557 452.438L544.578 453.807L543.34 455.998L542.351 453.807L540.124 452.438L542.351 451.069L543.34 448.879Z" fill="#FEA7AF"/>
<path opacity="0.3" d="M570.062 553.743L571.052 555.934L573.279 557.303L571.052 558.398L570.062 560.862L568.825 558.398L566.846 557.303L568.825 555.934L570.062 553.743Z" fill="#FEA7AF"/>
<path opacity="0.3" d="M816.248 163.309L817.237 165.773L819.464 166.868L817.237 168.237L816.248 170.428L815.011 168.237L813.031 166.868L815.011 165.773L816.248 163.309Z" fill="#FEA7AF"/>
<path opacity="0.3" d="M946.144 382.347L947.134 384.537L949.361 385.906L947.134 387.275L946.144 389.465L944.907 387.275L942.928 385.906L944.907 384.537L946.144 382.347Z" fill="white"/>
<path opacity="0.3" d="M866.721 74.5989L867.959 76.7893L869.938 78.1582L867.959 79.2534L866.721 81.7176L865.732 79.2534L863.505 78.1582L865.732 76.7893L866.721 74.5989Z" fill="white"/>
<path opacity="0.3" d="M599.752 240.52L601.979 244.627L605.69 246.817L601.979 249.281L599.752 253.388L597.773 249.281L594.062 246.817L597.773 244.627L599.752 240.52Z" fill="#FEA7AF"/>
<path d="M380.784 469.14L383.505 474.616L388.701 477.902L383.505 480.913L380.784 486.663L378.062 480.913L372.866 477.902L378.062 474.616L380.784 469.14Z" fill="white"/>
<path d="M827.629 471.604L828.619 473.795L830.351 474.89L828.619 475.985L827.629 477.902L826.64 475.985L824.66 474.89L826.64 473.795L827.629 471.604Z" fill="white"/>
<path d="M879.341 250.376L880.33 252.293L882.31 253.388L880.33 254.483L879.341 256.4L878.351 254.483L876.619 253.388L878.351 252.293L879.341 250.376Z" fill="white"/>
<path opacity="0.3" d="M179.877 255.305L181.608 259.138L184.825 261.054L181.608 262.971L179.877 266.53L177.897 262.971L174.681 261.054L177.897 259.138L179.877 255.305Z" fill="#FEA7AF"/>
<path opacity="0.3" d="M715.299 480.092L716.536 482.83L718.763 484.199L716.536 485.568L715.299 488.306L713.815 485.568L711.588 484.199L713.815 482.83L715.299 480.092Z" fill="#FEA7AF"/>
<path opacity="0.3" d="M775.175 559.493L776.412 562.231L778.886 563.6L776.412 564.969L775.175 567.707L773.938 564.969L771.464 563.6L773.938 562.231L775.175 559.493Z" fill="#FEA7AF"/>
<path opacity="0.3" d="M768 267.899L769.238 270.637L771.464 272.006L769.238 273.375L768 276.113L766.763 273.375L764.289 272.006L766.763 270.637L768 267.899Z" fill="#FEA7AF"/>
<path opacity="0.3" d="M570.062 328.409L571.299 330.873L573.526 332.242L571.299 333.885L570.062 336.349L568.825 333.885L566.351 332.242L568.825 330.873L570.062 328.409Z" fill="#FEA7AF"/>
<path opacity="0.3" d="M1088.66 363.455L1089.9 365.919L1092.37 367.562L1089.9 368.93L1088.66 371.395L1087.42 368.93L1084.95 367.562L1087.42 365.919L1088.66 363.455Z" fill="#FEA7AF"/>
<g opacity="0.2">
<path opacity="0.2" d="M169.98 151.536C167.01 164.131 155.382 171.523 144 168.237C132.866 164.952 125.938 152.083 128.907 139.489C131.876 126.894 143.505 119.502 154.887 122.787C166.268 126.073 172.949 138.941 169.98 151.536Z" fill="url(#paint0_linear_306_1636)"/>
<path opacity="0.2" d="M171.711 144.965C173.031 145.512 174.928 146.242 177.402 147.155C179.381 148.068 181.608 149.072 184.082 150.167C186.557 151.536 189.526 152.905 192 155.643C192.742 156.464 193.485 157.286 193.485 158.928C193.485 159.202 193.485 159.202 193.237 159.476V160.024C192.99 160.297 192.742 160.845 192.495 160.845C192 161.393 191.505 161.666 191.01 161.94C189.278 162.488 187.299 162.762 185.32 162.762C181.361 162.944 177.237 162.762 172.948 162.214C164.536 161.119 155.629 158.928 146.969 156.464C138.062 154 129.649 150.715 121.732 147.155C117.773 145.512 114.062 143.322 110.598 141.132C109.113 139.763 107.381 138.667 106.144 137.025C105.649 136.477 105.402 135.929 105.155 135.382C105.155 134.834 104.907 133.739 105.402 133.191C105.402 132.918 106.144 131.822 106.639 131.822C107.134 131.549 107.629 131.275 107.876 131.275C111.588 130.18 114.557 130.454 117.278 130.727C120.082 131.092 122.474 131.457 124.454 131.822C127.093 132.188 129.155 132.644 130.639 133.191C129.155 132.826 127.093 132.553 124.454 132.37C122.474 132.188 120.082 132.096 117.278 132.096C114.557 132.096 111.34 131.823 108.371 132.918C108.124 132.918 107.629 133.191 107.381 133.465C107.216 133.465 107.134 133.557 107.134 133.739C106.969 133.739 106.887 133.83 106.887 134.013C106.639 134.287 106.887 134.834 107.629 135.656C108.619 137.025 110.103 138.12 111.835 138.941C115.052 141.132 118.763 142.774 122.722 144.691C130.392 147.977 139.052 150.988 147.711 153.452C156.371 155.917 165.031 158.107 173.196 159.476C177.402 160.024 181.361 160.571 185.32 160.571C188.784 160.571 193.732 160.024 190.763 157.012C188.784 154.548 185.814 152.905 183.588 151.262C181.113 149.802 178.969 148.707 177.155 147.977C174.845 146.699 173.031 145.695 171.711 144.965V144.965Z" fill="url(#paint1_linear_306_1636)"/>
</g>
<path d="M246.186 278.578L342.928 376.597C343.423 377.144 343.423 378.24 342.928 378.787C342.433 379.335 341.691 379.335 341.196 378.787L241.485 284.327C240.001 282.958 239.753 280.494 241.238 278.851C242.475 277.209 244.702 276.935 246.186 278.578V278.578Z" fill="url(#paint2_linear_306_1636)"/>
<path style="mix-blend-mode:screen" d="M282.309 316.088L341.691 376.323C341.938 376.597 341.938 377.144 341.691 377.418C341.443 377.966 340.948 377.966 340.453 377.692L279.587 319.647C278.598 318.826 278.35 317.183 279.34 316.088C280.082 315.266 281.567 314.992 282.309 316.088V316.088Z" fill="url(#paint3_linear_306_1636)"/>
<g opacity="0.3">
<path opacity="0.3" d="M762.556 164.13L808.824 211.497C809.072 211.771 809.072 212.045 808.824 212.319C808.577 212.592 808.329 212.866 808.082 212.592L760.082 167.142C759.34 166.321 759.34 165.226 760.082 164.404C760.577 163.583 761.814 163.583 762.556 164.13V164.13Z" fill="url(#paint4_linear_306_1636)"/>
<path style="mix-blend-mode:screen" opacity="0.3" d="M779.876 182.201L808.33 211.224C808.33 211.224 808.33 211.497 808.33 211.771C808.082 212.045 807.835 212.045 807.588 211.771L778.392 184.118C777.897 183.57 777.897 182.749 778.392 182.475C778.639 181.927 779.381 181.927 779.876 182.201Z" fill="url(#paint5_linear_306_1636)"/>
</g>
<g opacity="0.3">
<path opacity="0.3" d="M50.9689 241.889L179.134 372.216C179.876 373.037 180.124 374.133 179.381 374.954C178.639 375.775 177.649 376.049 176.907 375.228L44.5359 249.829C42.5565 247.912 42.3091 244.353 44.041 242.163C45.773 239.972 48.9895 239.972 50.9689 241.889V241.889Z" fill="url(#paint6_linear_306_1636)"/>
<path style="mix-blend-mode:screen" opacity="0.3" d="M98.9687 291.72L177.402 371.668C177.897 372.216 177.897 372.764 177.649 373.311C177.154 373.859 176.412 373.859 176.165 373.585L95.01 296.648C93.7729 295.553 93.5254 293.362 94.7626 291.993C95.7522 290.625 97.7316 290.625 98.9687 291.72V291.72Z" fill="url(#paint7_linear_306_1636)"/>
<path opacity="0.3" d="M7.17528 256.126L66.0619 315.814C66.3093 316.088 66.3093 316.635 66.0619 317.183C65.8145 317.457 65.3196 317.457 64.8248 317.183L4.20621 259.685C3.21652 258.864 3.21652 257.221 3.95879 256.126C4.70105 255.305 6.18559 255.031 7.17528 256.126V256.126Z" fill="url(#paint8_linear_306_1636)"/>
<path style="mix-blend-mode:screen" opacity="0.3" d="M29.1962 278.851L65.0725 315.54C65.3199 315.814 65.3199 316.088 65.0725 316.362C65.0725 316.635 64.8251 316.635 64.5777 316.362L27.2168 281.042C26.722 280.494 26.722 279.673 27.2168 279.125C27.7117 278.304 28.454 278.304 29.1962 278.851V278.851Z" fill="url(#paint9_linear_306_1636)"/>
</g>
<path d="M959.505 260.507L1018.39 320.468C1018.89 320.742 1018.89 321.29 1018.64 321.564C1018.14 322.111 1017.65 322.111 1017.4 321.837L956.784 264.066C955.794 263.245 955.547 261.602 956.536 260.781C957.279 259.686 958.763 259.685 959.505 260.507Z" fill="url(#paint10_linear_306_1636)"/>
<path style="mix-blend-mode:screen" d="M981.526 283.506L1017.65 320.195C1017.9 320.195 1017.9 320.742 1017.65 320.742C1017.65 321.016 1017.15 321.016 1016.91 321.016L979.794 285.696C979.299 285.149 979.299 284.054 979.794 283.506C980.289 282.958 981.031 282.958 981.526 283.506Z" fill="url(#paint11_linear_306_1636)"/>
<defs>
<linearGradient id="paint0_linear_306_1636" x1="2603.93" y1="9260.58" x2="3237.5" y2="9052.82" gradientUnits="userSpaceOnUse">
<stop stop-color="#FFA7B5"/>
<stop offset="1" stop-color="#E852A8"/>
</linearGradient>
<linearGradient id="paint1_linear_306_1636" x1="4754.5" y1="6367.1" x2="6948.88" y2="7959.33" gradientUnits="userSpaceOnUse">
<stop stop-color="#FFA7B5"/>
<stop offset="1" stop-color="#E852A8"/>
</linearGradient>
<linearGradient id="paint2_linear_306_1636" x1="15194.1" y1="29716.4" x2="11017.2" y2="25969.7" gradientUnits="userSpaceOnUse">
<stop stop-color="#FFA7B5"/>
<stop offset="1" stop-color="#E852A8" stop-opacity="0"/>
</linearGradient>
<linearGradient id="paint3_linear_306_1636" x1="9431.48" y1="18354.7" x2="7867.04" y2="16944.5" gradientUnits="userSpaceOnUse">
<stop stop-color="#FFA7B5"/>
<stop offset="1" stop-color="#E852A8" stop-opacity="0"/>
</linearGradient>
<linearGradient id="paint4_linear_306_1636" x1="17282.4" y1="11330.8" x2="16321.7" y2="10468.8" gradientUnits="userSpaceOnUse">
<stop stop-color="#FFA7B5"/>
<stop offset="1" stop-color="#E852A8" stop-opacity="0"/>
</linearGradient>
<linearGradient id="paint5_linear_306_1636" x1="10895.3" y1="7002.82" x2="10535.3" y2="6678.1" gradientUnits="userSpaceOnUse">
<stop stop-color="#FFA7B5"/>
<stop offset="1" stop-color="#E852A8" stop-opacity="0"/>
</linearGradient>
<linearGradient id="paint6_linear_306_1636" x1="10806.9" y1="39243.7" x2="3439.29" y2="32633.4" gradientUnits="userSpaceOnUse">
<stop stop-color="#FFA7B5"/>
<stop offset="1" stop-color="#E852A8" stop-opacity="0"/>
</linearGradient>
<linearGradient id="paint7_linear_306_1636" x1="6668.76" y1="24089.5" x2="3906.57" y2="21603.7" gradientUnits="userSpaceOnUse">
<stop stop-color="#FFA7B5"/>
<stop offset="1" stop-color="#E852A8" stop-opacity="0"/>
</linearGradient>
<linearGradient id="paint8_linear_306_1636" x1="2107.82" y1="16774.2" x2="562.102" y2="15383.9" gradientUnits="userSpaceOnUse">
<stop stop-color="#FFA7B5"/>
<stop offset="1" stop-color="#E852A8" stop-opacity="0"/>
</linearGradient>
<linearGradient id="paint9_linear_306_1636" x1="1309.82" y1="10412.3" x2="730.232" y2="9889.45" gradientUnits="userSpaceOnUse">
<stop stop-color="#FFA7B5"/>
<stop offset="1" stop-color="#E852A8" stop-opacity="0"/>
</linearGradient>
<linearGradient id="paint10_linear_306_1636" x1="27277.8" y1="16914" x2="25729.4" y2="15515.8" gradientUnits="userSpaceOnUse">
<stop stop-color="#FFA7B5"/>
<stop offset="1" stop-color="#E852A8" stop-opacity="0"/>
</linearGradient>
<linearGradient id="paint11_linear_306_1636" x1="17051.2" y1="10430.7" x2="16470.1" y2="9911.34" gradientUnits="userSpaceOnUse">
<stop stop-color="#FFA7B5"/>
<stop offset="1" stop-color="#E852A8" stop-opacity="0"/>
</linearGradient>
</defs>
</svg>
